<svg xmlns="http://www.w3.org/2000/svg" viewBox="0 0 1440 320"><path fill="#0099ff" fill-opacity="1" d="M0,96L21.8,96C43.6,96,87,96,131,122.7C174.5,149,218,203,262,208C305.5,213,349,171,393,160C436.4,149,480,171,524,197.3C567.3,224,611,256,655,261.3C698.2,267,742,245,785,229.3C829.1,213,873,203,916,208C960,213,1004,235,1047,224C1090.9,213,1135,171,1178,133.3C1221.8,96,1265,64,1309,69.3C1352.7,75,1396,117,1418,138.7L1440,160L1440,0L1418.2,0C1396.4,0,1353,0,1309,0C1265.5,0,1222,0,1178,0C1134.5,0,1091,0,1047,0C1003.6,0,960,0,916,0C872.7,0,829,0,785,0C741.8,0,698,0,655,0C610.9,0,567,0,524,0C480,0,436,0,393,0C349.1,0,305,0,262,0C218.2,0,175,0,131,0C87.3,0,44,0,22,0L0,0Z"></path></svg>