<svg xmlns="http://www.w3.org/2000/svg" viewBox="0 0 1440 320">
<path fill="#0099ff" fill-opacity="1" d="M0,224L24,234.7C48,245,96,267,144,277.3C192,288,240,288,288,250.7C336,213,384,139,432,133.3C480,128,528,192,576,208C624,224,672,192,720,160C768,128,816,96,864,90.7C912,85,960,107,1008,144C1056,181,1104,235,1152,245.3C1200,256,1248,224,1296,186.7C1344,149,1392,107,1416,85.3L1440,64L1440,0L1416,0C1392,0,1344,0,1296,0C1248,0,1200,0,1152,0C1104,0,1056,0,1008,0C960,0,912,0,864,0C816,0,768,0,720,0C672,0,624,0,576,0C528,0,480,0,432,0C384,0,336,0,288,0C240,0,192,0,144,0C96,0,48,0,24,0L0,0Z">
</path>
</svg>